# Blender v3.1.2 OBJ File: 'auction_paddle.blend'
# www.blender.org
o auction_paddle
v 0.000000 0.149837 0.002500
v -0.043969 -0.050314 0.002500
v -0.058379 -0.042612 0.002500
v -0.074302 -0.029544 0.002500
v -0.087370 -0.013620 0.002500
v -0.097080 0.004546 0.002500
v -0.103060 0.024259 0.002500
v -0.105079 0.044758 0.002500
v -0.103060 0.065258 0.002500
v -0.097080 0.084970 0.002500
v -0.087370 0.103137 0.002500
v -0.074302 0.119060 0.002500
v -0.058379 0.132128 0.002500
v -0.040212 0.141839 0.002500
v -0.020500 0.147818 0.002500
v 0.000000 -0.149837 0.002500
v -0.024016 -0.137347 0.002500
v -0.011525 -0.149837 0.002500
v -0.023066 -0.142127 0.002500
v -0.020358 -0.146179 0.002500
v -0.016306 -0.148887 0.002500
v -0.024016 -0.066769 0.002500
v -0.033140 -0.054467 0.002500
v -0.026689 -0.059217 0.002500
v 0.000000 -0.066769 0.002500
v 0.000000 -0.059217 0.002500
v 0.000000 -0.137347 0.002500
v -0.011902 -0.137347 0.002500
v -0.011902 -0.066769 0.002500
v -0.011902 -0.059217 0.002500
v 0.000000 0.044758 0.002500
v 0.000000 -0.054467 0.002500
v -0.011902 -0.054467 0.002500
v 0.000000 -0.050314 0.002500
v -0.011902 -0.050314 0.002500
v 0.043969 -0.050314 0.002500
v 0.058379 -0.042612 0.002500
v 0.074302 -0.029544 0.002500
v 0.087370 -0.013620 0.002500
v 0.097080 0.004546 0.002500
v 0.103060 0.024259 0.002500
v 0.105079 0.044758 0.002500
v 0.103060 0.065258 0.002500
v 0.097080 0.084970 0.002500
v 0.087370 0.103137 0.002500
v 0.074302 0.119060 0.002500
v 0.058379 0.132128 0.002500
v 0.040212 0.141839 0.002500
v 0.020500 0.147818 0.002500
v 0.024016 -0.137347 0.002500
v 0.011525 -0.149837 0.002500
v 0.023066 -0.142127 0.002500
v 0.020358 -0.146179 0.002500
v 0.016306 -0.148887 0.002500
v 0.024016 -0.066769 0.002500
v 0.033140 -0.054467 0.002500
v 0.026689 -0.059217 0.002500
v 0.011902 -0.137347 0.002500
v 0.011902 -0.066769 0.002500
v 0.011902 -0.059217 0.002500
v 0.011902 -0.054467 0.002500
v 0.011902 -0.050314 0.002500
v 0.000000 0.149837 -0.002500
v -0.043969 -0.050314 -0.002500
v -0.058379 -0.042612 -0.002500
v -0.074302 -0.029544 -0.002500
v -0.087370 -0.013620 -0.002500
v -0.097080 0.004546 -0.002500
v -0.103060 0.024259 -0.002500
v -0.105079 0.044758 -0.002500
v -0.103060 0.065258 -0.002500
v -0.097080 0.084970 -0.002500
v -0.087370 0.103137 -0.002500
v -0.074302 0.119060 -0.002500
v -0.058379 0.132128 -0.002500
v -0.040212 0.141839 -0.002500
v -0.020500 0.147818 -0.002500
v 0.000000 -0.149837 -0.002500
v -0.024016 -0.137347 -0.002500
v -0.011525 -0.149837 -0.002500
v -0.023066 -0.142127 -0.002500
v -0.020358 -0.146179 -0.002500
v -0.016306 -0.148887 -0.002500
v -0.024016 -0.066769 -0.002500
v -0.033140 -0.054467 -0.002500
v -0.026689 -0.059217 -0.002500
v -0.000000 -0.066769 -0.002500
v 0.000000 -0.059217 -0.002500
v -0.000000 -0.137347 -0.002500
v -0.011902 -0.137347 -0.002500
v -0.011902 -0.066769 -0.002500
v -0.011902 -0.059217 -0.002500
v -0.000000 0.044758 -0.002500
v 0.000000 -0.054467 -0.002500
v -0.011902 -0.054467 -0.002500
v 0.000000 -0.050314 -0.002500
v -0.011902 -0.050314 -0.002500
v 0.043969 -0.050314 -0.002500
v 0.058379 -0.042612 -0.002500
v 0.074302 -0.029544 -0.002500
v 0.087370 -0.013620 -0.002500
v 0.097080 0.004546 -0.002500
v 0.103060 0.024259 -0.002500
v 0.105079 0.044758 -0.002500
v 0.103060 0.065258 -0.002500
v 0.097080 0.084970 -0.002500
v 0.087370 0.103137 -0.002500
v 0.074302 0.119060 -0.002500
v 0.058379 0.132128 -0.002500
v 0.040212 0.141839 -0.002500
v 0.020500 0.147818 -0.002500
v 0.024016 -0.137347 -0.002500
v 0.011525 -0.149837 -0.002500
v 0.023066 -0.142127 -0.002500
v 0.020358 -0.146179 -0.002500
v 0.016306 -0.148887 -0.002500
v 0.024016 -0.066769 -0.002500
v 0.033140 -0.054467 -0.002500
v 0.026689 -0.059217 -0.002500
v 0.011902 -0.137347 -0.002500
v 0.011902 -0.066769 -0.002500
v 0.011902 -0.059217 -0.002500
v 0.011902 -0.054467 -0.002500
v 0.011902 -0.050314 -0.002500
vt 0.702351 0.764103
vt 0.656573 0.750217
vt 0.749959 0.524763
vt 0.749958 0.768792
vt 0.749959 0.283297
vt 0.722318 0.283297
vt 0.722318 0.265759
vt 0.749959 0.265759
vt 0.694185 0.265759
vt 0.694185 0.101853
vt 0.722318 0.101853
vt 0.687979 0.283297
vt 0.696393 0.090752
vt 0.702681 0.081342
vt 0.749959 0.101853
vt 0.723193 0.072845
vt 0.749959 0.072845
vt 0.524505 0.431377
vt 0.505929 0.524763
vt 0.510618 0.477155
vt 0.712092 0.075053
vt 0.524505 0.618149
vt 0.510618 0.572371
vt 0.722318 0.303973
vt 0.749959 0.303973
vt 0.577404 0.352208
vt 0.547056 0.389188
vt 0.577404 0.697318
vt 0.547055 0.660339
vt 0.614383 0.727666
vt 0.647848 0.303973
vt 0.614384 0.321860
vt 0.672997 0.294327
vt 0.722318 0.294327
vt 0.749959 0.294327
vt 0.797567 0.764103
vt 0.843345 0.750217
vt 0.777599 0.265759
vt 0.777599 0.283297
vt 0.777599 0.101853
vt 0.805733 0.101853
vt 0.805733 0.265759
vt 0.811938 0.283298
vt 0.797237 0.081342
vt 0.803525 0.090752
vt 0.776725 0.072845
vt 0.975412 0.431377
vt 0.989299 0.477156
vt 0.993988 0.524763
vt 0.787826 0.075053
vt 0.989299 0.572371
vt 0.975412 0.618149
vt 0.777599 0.303973
vt 0.922513 0.352208
vt 0.952862 0.389188
vt 0.952861 0.660339
vt 0.922513 0.697318
vt 0.885534 0.727666
vt 0.852069 0.303973
vt 0.885534 0.321860
vt 0.826921 0.294327
vt 0.777599 0.294327
vt 0.301157 0.766877
vt 0.253549 0.771566
vt 0.253548 0.527537
vt 0.346935 0.752991
vt 0.253548 0.286071
vt 0.253548 0.268532
vt 0.281189 0.268532
vt 0.281189 0.286071
vt 0.281189 0.104627
vt 0.309322 0.104627
vt 0.309322 0.268532
vt 0.315528 0.286071
vt 0.300826 0.084115
vt 0.307114 0.093526
vt 0.253548 0.104627
vt 0.253548 0.075619
vt 0.280314 0.075619
vt 0.479002 0.434151
vt 0.492889 0.479929
vt 0.497578 0.527537
vt 0.291415 0.077827
vt 0.492889 0.575144
vt 0.479002 0.620923
vt 0.253548 0.306746
vt 0.281189 0.306746
vt 0.426103 0.354982
vt 0.456452 0.391962
vt 0.456451 0.663113
vt 0.426103 0.700091
vt 0.389124 0.730440
vt 0.355659 0.306746
vt 0.389124 0.324634
vt 0.330510 0.297101
vt 0.281189 0.297101
vt 0.253548 0.297101
vt 0.205941 0.766878
vt 0.160162 0.752991
vt 0.225908 0.286071
vt 0.225908 0.268532
vt 0.197774 0.268532
vt 0.197774 0.104627
vt 0.225907 0.104627
vt 0.191568 0.286071
vt 0.199982 0.093526
vt 0.206270 0.084115
vt 0.226782 0.075619
vt 0.028095 0.434151
vt 0.009519 0.527537
vt 0.014208 0.479929
vt 0.215681 0.077827
vt 0.028095 0.620923
vt 0.014208 0.575145
vt 0.225908 0.306746
vt 0.080993 0.354982
vt 0.050645 0.391961
vt 0.080994 0.700092
vt 0.050645 0.663112
vt 0.117973 0.730440
vt 0.151438 0.306746
vt 0.117973 0.324634
vt 0.176586 0.297101
vt 0.225908 0.297101
vt 0.308698 0.046294
vt 0.346643 0.046294
vt 0.346643 0.058911
vt 0.308698 0.058911
vt 0.394481 0.046294
vt 0.394481 0.058911
vt 0.442319 0.046294
vt 0.442319 0.058911
vt 0.490158 0.046294
vt 0.490158 0.058911
vt 0.537996 0.046294
vt 0.537996 0.058911
vt 0.585834 0.046294
vt 0.585834 0.058911
vt 0.633672 0.046294
vt 0.633672 0.058911
vt 0.681511 0.046294
vt 0.681511 0.058911
vt 0.729349 0.046294
vt 0.729349 0.058911
vt 0.777187 0.046294
vt 0.777187 0.058911
vt 0.825026 0.046294
vt 0.825026 0.058912
vt 0.872864 0.046294
vt 0.872864 0.058912
vt 0.920703 0.046294
vt 0.920703 0.058912
vt 0.968541 0.046294
vt 0.968541 0.058912
vt 0.069331 0.046294
vt 0.080650 0.046294
vt 0.080650 0.058912
vt 0.069331 0.058912
vt 0.058013 0.046294
vt 0.058013 0.058912
vt 0.046695 0.046294
vt 0.046695 0.058912
vt 0.035377 0.046294
vt 0.035377 0.058912
vt 0.008611 0.046294
vt 0.008611 0.058912
vt 0.281763 0.046294
vt 0.281763 0.058911
vt 0.263159 0.046294
vt 0.263159 0.058911
vt 0.244555 0.046294
vt 0.244555 0.058911
vt 0.630504 0.017047
vt 0.668450 0.017047
vt 0.668450 0.029664
vt 0.630504 0.029664
vt 0.582666 0.017047
vt 0.582666 0.029664
vt 0.534828 0.017047
vt 0.534828 0.029664
vt 0.486990 0.017047
vt 0.486990 0.029664
vt 0.439152 0.017047
vt 0.439152 0.029664
vt 0.391314 0.017047
vt 0.391314 0.029664
vt 0.343476 0.017047
vt 0.343476 0.029664
vt 0.295638 0.017047
vt 0.295638 0.029664
vt 0.247800 0.017047
vt 0.247800 0.029664
vt 0.199962 0.017047
vt 0.199962 0.029664
vt 0.152124 0.017047
vt 0.152124 0.029665
vt 0.104286 0.017047
vt 0.104286 0.029665
vt 0.056448 0.017047
vt 0.056448 0.029665
vt 0.896501 0.017047
vt 0.907819 0.017047
vt 0.907819 0.029665
vt 0.896501 0.029665
vt 0.919138 0.017047
vt 0.919138 0.029665
vt 0.930456 0.017047
vt 0.930456 0.029665
vt 0.941775 0.017047
vt 0.941775 0.029665
vt 0.695384 0.017047
vt 0.695384 0.029664
vt 0.713989 0.017047
vt 0.713989 0.029664
vt 0.732593 0.017047
vt 0.732593 0.029664
vt 0.008611 0.017047
vt 0.008611 0.029665
vt 0.968541 0.017047
vt 0.968541 0.029665
vn 0.0000 0.0000 1.0000
vn -0.0000 -0.0000 -1.0000
vn -0.4156 -0.9096 0.0000
vn -0.5556 -0.8315 0.0000
vn -0.7071 -0.7071 0.0000
vn -0.8315 -0.5556 0.0000
vn -0.9239 -0.3827 0.0000
vn -0.9808 -0.1951 0.0000
vn -1.0000 0.0000 0.0000
vn -0.9808 0.1951 0.0000
vn -0.9239 0.3827 0.0000
vn -0.8315 0.5556 0.0000
vn -0.7071 0.7071 0.0000
vn -0.5556 0.8315 0.0000
vn -0.3827 0.9239 0.0000
vn -0.1951 0.9808 0.0000
vn 0.0000 1.0000 0.0000
vn -0.9952 -0.0980 0.0000
vn -0.3827 -0.9239 0.0000
vn -0.0980 -0.9952 0.0000
vn 0.0000 -1.0000 0.0000
vn -0.4798 -0.8774 0.0000
vn -0.8032 -0.5957 0.0000
vn -0.9856 -0.1692 0.0000
vn 0.5556 -0.8315 0.0000
vn 0.4156 -0.9096 0.0000
vn 0.7071 -0.7071 0.0000
vn 0.8315 -0.5556 0.0000
vn 0.9239 -0.3827 0.0000
vn 0.9808 -0.1951 0.0000
vn 1.0000 0.0000 0.0000
vn 0.9808 0.1951 0.0000
vn 0.9239 0.3827 0.0000
vn 0.8315 0.5556 0.0000
vn 0.7071 0.7071 0.0000
vn 0.5556 0.8315 0.0000
vn 0.3827 0.9239 0.0000
vn 0.1951 0.9808 0.0000
vn 0.9952 -0.0980 0.0000
vn 0.3827 -0.9239 0.0000
vn 0.0980 -0.9952 0.0000
vn 0.4798 -0.8774 0.0000
vn 0.8032 -0.5957 0.0000
vn 0.9856 -0.1692 0.0000
s 1
f 15/1/1 14/2/1 31/3/1 1/4/1
f 26/5/1 30/6/1 29/7/1 25/8/1
f 29/7/1 22/9/1 17/10/1 28/11/1
f 30/6/1 24/12/1 22/9/1 29/7/1
f 28/11/1 17/10/1 19/13/1 20/14/1
f 25/8/1 29/7/1 28/11/1 27/15/1
f 27/15/1 28/11/1 18/16/1 16/17/1
f 6/18/1 31/3/1 8/19/1 7/20/1
f 18/16/1 28/11/1 20/14/1 21/21/1
f 8/19/1 31/3/1 10/22/1 9/23/1
f 31/3/1 35/24/1 34/25/1
f 4/26/1 31/3/1 6/18/1 5/27/1
f 10/22/1 31/3/1 12/28/1 11/29/1
f 14/2/1 13/30/1 12/28/1 31/3/1
f 2/31/1 31/3/1 4/26/1 3/32/1
f 23/33/1 24/12/1 30/6/1 33/34/1
f 33/34/1 35/24/1 2/31/1 23/33/1
f 32/35/1 33/34/1 30/6/1 26/5/1
f 34/25/1 35/24/1 33/34/1 32/35/1
f 2/31/1 35/24/1 31/3/1
f 49/36/1 1/4/1 31/3/1 48/37/1
f 26/5/1 25/8/1 59/38/1 60/39/1
f 59/38/1 58/40/1 50/41/1 55/42/1
f 60/39/1 59/38/1 55/42/1 57/43/1
f 58/40/1 53/44/1 52/45/1 50/41/1
f 25/8/1 27/15/1 58/40/1 59/38/1
f 27/15/1 16/17/1 51/46/1 58/40/1
f 40/47/1 41/48/1 42/49/1 31/3/1
f 51/46/1 54/50/1 53/44/1 58/40/1
f 42/49/1 43/51/1 44/52/1 31/3/1
f 31/3/1 34/25/1 62/53/1
f 38/54/1 39/55/1 40/47/1 31/3/1
f 44/52/1 45/56/1 46/57/1 31/3/1
f 48/37/1 31/3/1 46/57/1 47/58/1
f 36/59/1 37/60/1 38/54/1 31/3/1
f 56/61/1 61/62/1 60/39/1 57/43/1
f 61/62/1 56/61/1 36/59/1 62/53/1
f 32/35/1 26/5/1 60/39/1 61/62/1
f 34/25/1 32/35/1 61/62/1 62/53/1
f 36/59/1 31/3/1 62/53/1
f 77/63/2 63/64/2 93/65/2 76/66/2
f 88/67/2 87/68/2 91/69/2 92/70/2
f 91/69/2 90/71/2 79/72/2 84/73/2
f 92/70/2 91/69/2 84/73/2 86/74/2
f 90/71/2 82/75/2 81/76/2 79/72/2
f 87/68/2 89/77/2 90/71/2 91/69/2
f 89/77/2 78/78/2 80/79/2 90/71/2
f 68/80/2 69/81/2 70/82/2 93/65/2
f 80/79/2 83/83/2 82/75/2 90/71/2
f 70/82/2 71/84/2 72/85/2 93/65/2
f 93/65/2 96/86/2 97/87/2
f 66/88/2 67/89/2 68/80/2 93/65/2
f 72/85/2 73/90/2 74/91/2 93/65/2
f 76/66/2 93/65/2 74/91/2 75/92/2
f 64/93/2 65/94/2 66/88/2 93/65/2
f 85/95/2 95/96/2 92/70/2 86/74/2
f 95/96/2 85/95/2 64/93/2 97/87/2
f 94/97/2 88/67/2 92/70/2 95/96/2
f 96/86/2 94/97/2 95/96/2 97/87/2
f 64/93/2 93/65/2 97/87/2
f 111/98/2 110/99/2 93/65/2 63/64/2
f 88/67/2 122/100/2 121/101/2 87/68/2
f 121/101/2 117/102/2 112/103/2 120/104/2
f 122/100/2 119/105/2 117/102/2 121/101/2
f 120/104/2 112/103/2 114/106/2 115/107/2
f 87/68/2 121/101/2 120/104/2 89/77/2
f 89/77/2 120/104/2 113/108/2 78/78/2
f 102/109/2 93/65/2 104/110/2 103/111/2
f 113/108/2 120/104/2 115/107/2 116/112/2
f 104/110/2 93/65/2 106/113/2 105/114/2
f 93/65/2 124/115/2 96/86/2
f 100/116/2 93/65/2 102/109/2 101/117/2
f 106/113/2 93/65/2 108/118/2 107/119/2
f 110/99/2 109/120/2 108/118/2 93/65/2
f 98/121/2 93/65/2 100/116/2 99/122/2
f 118/123/2 119/105/2 122/100/2 123/124/2
f 123/124/2 124/115/2 98/121/2 118/123/2
f 94/97/2 123/124/2 122/100/2 88/67/2
f 96/86/2 124/115/2 123/124/2 94/97/2
f 98/121/2 124/115/2 93/65/2
f 2/125/3 3/126/4 65/127/4 64/128/3
f 3/126/4 4/129/5 66/130/5 65/127/4
f 4/129/5 5/131/6 67/132/6 66/130/5
f 5/131/6 6/133/7 68/134/7 67/132/6
f 6/133/7 7/135/8 69/136/8 68/134/7
f 7/135/8 8/137/9 70/138/9 69/136/8
f 8/137/9 9/139/10 71/140/10 70/138/9
f 9/139/10 10/141/11 72/142/11 71/140/10
f 10/141/11 11/143/12 73/144/12 72/142/11
f 11/143/12 12/145/13 74/146/13 73/144/12
f 12/145/13 13/147/14 75/148/14 74/146/13
f 13/147/14 14/149/15 76/150/15 75/148/14
f 14/149/15 15/151/16 77/152/16 76/150/15
f 15/151/16 1/153/17 63/154/17 77/152/16
f 19/155/7 17/156/18 79/157/18 81/158/7
f 20/159/5 19/155/7 81/158/7 82/160/5
f 21/161/19 20/159/5 82/160/5 83/162/19
f 18/163/20 21/161/19 83/162/19 80/164/20
f 16/165/21 18/163/20 80/164/20 78/166/21
f 23/167/22 2/125/3 64/128/3 85/168/22
f 24/169/23 23/167/22 85/168/22 86/170/23
f 22/171/24 24/169/23 86/170/23 84/172/24
f 17/156/18 22/171/24 84/172/24 79/157/18
f 37/173/25 36/174/26 98/175/26 99/176/25
f 38/177/27 37/173/25 99/176/25 100/178/27
f 39/179/28 38/177/27 100/178/27 101/180/28
f 40/181/29 39/179/28 101/180/28 102/182/29
f 41/183/30 40/181/29 102/182/29 103/184/30
f 42/185/31 41/183/30 103/184/30 104/186/31
f 43/187/32 42/185/31 104/186/31 105/188/32
f 44/189/33 43/187/32 105/188/32 106/190/33
f 45/191/34 44/189/33 106/190/33 107/192/34
f 46/193/35 45/191/34 107/192/34 108/194/35
f 47/195/36 46/193/35 108/194/35 109/196/36
f 48/197/37 47/195/36 109/196/36 110/198/37
f 49/199/38 48/197/37 110/198/37 111/200/38
f 50/201/39 52/202/29 114/203/29 112/204/39
f 52/202/29 53/205/27 115/206/27 114/203/29
f 53/205/27 54/207/40 116/208/40 115/206/27
f 54/207/40 51/209/41 113/210/41 116/208/40
f 36/174/26 56/211/42 118/212/42 98/175/26
f 56/211/42 57/213/43 119/214/43 118/212/42
f 57/213/43 55/215/44 117/216/44 119/214/43
f 55/215/44 50/201/39 112/204/39 117/216/44
f 1/217/17 49/199/38 111/200/38 63/218/17
f 51/209/41 16/219/21 78/220/21 113/210/41
